<?xml version="1.0" encoding="utf-8"?>
<!-- Generator: Adobe Illustrator 19.1.0, SVG Export Plug-In . SVG Version: 6.00 Build 0)  -->
<svg version="1.1" id="Layer_1" xmlns="http://www.w3.org/2000/svg" xmlns:xlink="http://www.w3.org/1999/xlink" x="0px" y="0px"
	 viewBox="-128.8 40 84 86.9" style="enable-background:new -128.8 40 84 86.9;" xml:space="preserve">
<style type="text/css">
	.st0{fill:#134D91;}
	.st1{fill:#11B295;}
</style>
<g>
	<path class="st0" d="M-87,126.9c-5.6,0-10.8-1-15.6-3s-9.2-5-13.1-8.9c-3.9-4-6.9-8.3-8.9-13.2c-2-4.8-3-10-3-15.6s1-10.8,3-15.6
		s5-9.2,8.9-13.2c3.9-3.9,8.3-6.9,13.1-8.9c2.8-1.1,5.7-2,8.7-2.4v-5H-80V46c3,0.5,5.9,1.3,8.7,2.4c4.8,2,9.2,5,13.1,8.9
		c4,3.9,6.9,8.3,8.9,13.2c2,4.8,3,10,3,15.6s-1,10.8-3,15.6s-5,9.2-8.9,13.2c-4,4-8.3,7-13.1,8.9C-76.2,125.9-81.4,126.9-87,126.9
		L-87,126.9L-87,126.9L-87,126.9z M-103.2,52.6l2.2,3.8c-1.7,0.8-3.3,1.7-4.9,2.8l-2.1-3.8c-1.8,1.3-3.6,2.8-5.3,4.5
		c-1.7,1.7-3.2,3.5-4.5,5.3l3.8,2.2c-1.1,1.5-2,3.1-2.8,4.9l-3.8-2.3c-0.3,0.6-0.6,1.2-0.9,1.9c-1.5,3.6-2.4,7.4-2.6,11.5h4.3
		c-0.1,0.9-0.1,1.9-0.1,2.8c0,0.9,0,1.9,0.1,2.8h-4.3c0.3,4.1,1.1,7.9,2.6,11.5c0.3,0.6,0.5,1.3,0.9,1.9l3.8-2.2
		c0.8,1.6,1.8,3.3,2.8,4.8l-3.8,2.2c1.3,1.8,2.8,3.6,4.5,5.3c1.7,1.7,3.5,3.2,5.3,4.5l2.2-3.8c1.5,1.1,3.1,2,4.9,2.8l-2.2,3.8
		c0.6,0.3,1.2,0.6,1.9,0.9l0,0c3.6,1.5,7.4,2.4,11.5,2.6V119c0.9,0.1,1.9,0.1,2.8,0.1c0.9,0,1.9,0,2.8-0.1v4.3
		c4.1-0.3,7.9-1.1,11.5-2.6c0.6-0.3,1.3-0.6,1.9-0.9L-73,116c1.7-0.8,3.3-1.7,4.9-2.8l2.1,3.8c1.8-1.3,3.6-2.8,5.3-4.5
		c1.7-1.7,3.2-3.4,4.5-5.3L-60,105c1.1-1.5,2-3.1,2.8-4.8l3.8,2.2c0.3-0.6,0.6-1.3,0.9-1.9c1.5-3.6,2.4-7.4,2.6-11.5h-4.3
		c0.1-0.9,0.1-1.9,0.1-2.8c0-0.9,0-1.9-0.1-2.8h4.3c-0.3-4.1-1.1-7.9-2.6-11.5c-0.3-0.6-0.5-1.3-0.9-1.9l-3.8,2.2
		c-0.8-1.7-1.8-3.3-2.8-4.8l3.8-2.2c-1.3-1.8-2.8-3.6-4.5-5.3c-1.7-1.7-3.5-3.2-5.3-4.5l-2.2,3.8c-1.5-1.1-3.1-2-4.9-2.8l2.2-3.8
		c-0.6-0.3-1.2-0.6-1.9-0.8c-3.6-1.5-7.4-2.4-11.5-2.6v4.3c-0.9-0.1-1.9-0.1-2.8-0.1c-0.9,0-1.9,0-2.8,0.1v-4.3
		c-4.1,0.3-7.9,1.1-11.5,2.6C-101.9,52-102.6,52.3-103.2,52.6L-103.2,52.6L-103.2,52.6z"/>
</g>
<g>
	<path class="st1" d="M-91,70.2c-0.7,0-1.4,0-2.3,0.1c-5.3,0.4-7.6,3.1-8.3,6.1h0.1c1.3-1.3,3-2,5.4-2c4.3,0,7.9,3,7.9,8.3
		c0,5-3.9,9.2-9.4,9.2c-6.8,0-10.1-5-10.1-11.1c0-4.8,1.8-8.8,4.5-11.3c2.5-2.3,5.8-3.6,9.8-3.8c1.1-0.1,1.8-0.1,2.4,0
		C-91,65.7-91,70.2-91,70.2z M-94.3,82.9c0-2.3-1.3-4.4-3.8-4.4c-1.6,0-2.9,1-3.5,2.3c-0.2,0.3-0.2,0.8-0.2,1.5
		c0.1,2.7,1.4,5.1,4.1,5.1C-95.6,87.4-94.3,85.5-94.3,82.9z"/>
	<path class="st1" d="M-66.8,78.6c0,7.9-3.2,13.2-9.7,13.2c-6.6,0-9.5-5.9-9.5-13.1c0-7.3,3.1-13.2,9.7-13.2
		C-69.4,65.5-66.8,71.6-66.8,78.6z M-80,78.7c0,5.8,1.4,8.6,3.7,8.6c2.3,0,3.6-2.9,3.6-8.7c0-5.6-1.2-8.6-3.6-8.6
		C-78.5,70-80,72.8-80,78.7z"/>
</g>
<g>
	<path class="st1" d="M-103,101.4c-0.1-1.1-0.1-2.5-0.1-3.5l0,0c-0.3,0.9-0.6,2-1,3.1l-1.4,3.9h-0.8l-1.4-3.9
		c-0.4-1.1-0.7-2.2-0.9-3.1l0,0c0,1-0.1,2.4-0.2,3.6l-0.2,3.4h-1l0.6-8.1h1.3l1.4,3.9c0.3,1,0.6,1.9,0.8,2.7l0,0
		c0.2-0.8,0.5-1.7,0.9-2.7l1.4-3.9h1.3l0.5,8.1h-1L-103,101.4z"/>
	<path class="st1" d="M-99.1,96.9v8.1h-1v-8.1H-99.1z"/>
	<path class="st1" d="M-97.3,104.9v-8.1h1.1l2.6,4.1c0.6,0.9,1.1,1.8,1.5,2.6l0,0c-0.1-1.1-0.1-2.1-0.1-3.3v-3.4h1v8.1h-1.1
		l-2.6-4.1c-0.6-0.9-1.1-1.8-1.5-2.7l0,0c0.1,1,0.1,2,0.1,3.3v3.5H-97.3z"/>
	<path class="st1" d="M-88.4,96.9v4.8c0,1.8,0.8,2.6,1.9,2.6c1.2,0,2-0.8,2-2.6v-4.8h1.1v4.7c0,2.5-1.3,3.5-3.1,3.5
		c-1.7,0-2.9-0.9-2.9-3.5v-4.8L-88.4,96.9L-88.4,96.9z"/>
	<path class="st1" d="M-80.1,97.7h-2.5v-0.9h6v0.9h-2.5v7.2h-1.1L-80.1,97.7L-80.1,97.7z"/>
	<path class="st1" d="M-71.5,101.2h-3.1v2.9h3.5v0.9h-4.5v-8.1h4.4v0.9h-3.3v2.6h3.1v0.8H-71.5z"/>
	<path class="st1" d="M-69.9,103.7c0.5,0.3,1.2,0.5,1.9,0.5c1.1,0,1.7-0.6,1.7-1.4s-0.4-1.2-1.5-1.6c-1.3-0.5-2.1-1.2-2.1-2.3
		c0-1.3,1-2.2,2.6-2.2c0.8,0,1.4,0.2,1.8,0.4l-0.4,0.9c-0.3-0.1-0.8-0.4-1.5-0.4c-1.1,0-1.5,0.7-1.5,1.2c0,0.8,0.5,1.1,1.6,1.6
		c1.4,0.5,2.1,1.2,2.1,2.4c0,1.2-0.9,2.3-2.8,2.3c-0.8,0-1.6-0.2-2.1-0.5L-69.9,103.7z"/>
</g>
</svg>
