<?xml version="1.0" encoding="utf-8"?>
<!-- Generator: Adobe Illustrator 19.1.0, SVG Export Plug-In . SVG Version: 6.00 Build 0)  -->
<svg version="1.1" id="Layer_1" xmlns="http://www.w3.org/2000/svg" xmlns:xlink="http://www.w3.org/1999/xlink" x="0px" y="0px"
	 viewBox="7.3 9.3 85.7 72" style="enable-background:new 7.3 9.3 85.7 72;" xml:space="preserve">
<style type="text/css">
	.st0{fill:#11B295;}
	.st1{fill:#FFFFFF;}
</style>
<g>
	<path class="st0" d="M16.7,72L16.7,72l-4.9-7.3v11.1H9.1V60.3H12l4.7,7.3l4.7-7.3h2.9v15.5h-2.7V64.7L16.7,72z"/>
	<path class="st0" d="M33.4,73.1c0.6,0.5,1.3,0.8,2.2,0.8c0.7,0,1.2-0.1,1.7-0.4c0.5-0.2,1-0.6,1.4-1l1.6,1.4
		c-0.6,0.7-1.2,1.2-2,1.6s-1.7,0.6-2.8,0.6c-0.8,0-1.6-0.1-2.4-0.4c-0.7-0.3-1.4-0.7-1.9-1.2s-1-1.2-1.3-1.9
		c-0.3-0.7-0.5-1.6-0.5-2.5c0-0.8,0.1-1.6,0.4-2.4c0.3-0.7,0.7-1.4,1.2-1.9c0.5-0.6,1.1-1,1.8-1.3s1.5-0.5,2.3-0.5
		c0.9,0,1.7,0.2,2.4,0.5s1.3,0.8,1.8,1.4s0.8,1.2,1.1,2c0.2,0.8,0.4,1.6,0.4,2.4c0,0.1,0,0.2,0,0.4c0,0.1,0,0.2,0,0.4h-8.6
		C32.4,71.9,32.8,72.6,33.4,73.1z M38.3,69.2c0-0.4-0.1-0.8-0.3-1.2c-0.1-0.4-0.3-0.7-0.6-1s-0.5-0.5-0.9-0.7
		c-0.3-0.2-0.7-0.2-1.2-0.2c-0.8,0-1.5,0.3-2,0.9s-0.9,1.3-1,2.2C32.3,69.2,38.3,69.2,38.3,69.2z"/>
	<path class="st0" d="M54.6,75.8v-2c-0.4,0.6-1,1.1-1.6,1.6c-0.6,0.4-1.4,0.6-2.4,0.6c-0.7,0-1.4-0.1-2-0.4s-1.2-0.7-1.7-1.2
		s-0.9-1.2-1.2-1.9c-0.3-0.8-0.5-1.6-0.5-2.6s0.2-1.8,0.5-2.6c0.3-0.8,0.7-1.4,1.2-1.9s1.1-0.9,1.7-1.2c0.7-0.3,1.3-0.4,2-0.4
		c1,0,1.8,0.2,2.4,0.6c0.6,0.4,1.2,0.9,1.6,1.4v-6.3h2.7v16.2L54.6,75.8L54.6,75.8z M54.4,68.4c-0.2-0.5-0.4-0.9-0.7-1.2
		c-0.3-0.3-0.7-0.6-1.1-0.8c-0.4-0.2-0.8-0.3-1.3-0.3s-0.9,0.1-1.3,0.3c-0.4,0.2-0.8,0.4-1.1,0.7c-0.3,0.3-0.6,0.7-0.7,1.2
		s-0.3,1-0.3,1.6s0.1,1.1,0.3,1.6s0.4,0.9,0.7,1.2c0.3,0.3,0.7,0.6,1.1,0.8c0.4,0.2,0.8,0.3,1.3,0.3c0.4,0,0.9-0.1,1.3-0.3
		c0.4-0.2,0.8-0.4,1.1-0.8c0.3-0.3,0.6-0.7,0.7-1.2c0.2-0.5,0.3-1,0.3-1.6S54.6,68.9,54.4,68.4z"/>
	<path class="st0" d="M62.9,62.3v-2.5h2.9v2.5H62.9z M63.1,75.8V64.1h2.7v11.7C65.8,75.8,63.1,75.8,63.1,75.8z"/>
	<path class="st0" d="M71.6,75.8V59.7h2.7v16.2L71.6,75.8L71.6,75.8z"/>
	<path class="st0" d="M86.3,76.2c-0.2,0.6-0.5,1.1-0.7,1.5c-0.3,0.4-0.5,0.8-0.8,1c-0.3,0.3-0.7,0.4-1,0.6c-0.4,0.1-0.8,0.2-1.3,0.2
		c-0.6,0-1.1-0.1-1.5-0.2s-0.9-0.3-1.3-0.5l0.9-2c0.3,0.1,0.5,0.2,0.8,0.3c0.3,0.1,0.5,0.1,0.8,0.1c0.4,0,0.7-0.1,1-0.3
		c0.3-0.2,0.5-0.5,0.7-1.1L79,64.1h2.9l3.3,8.7l3-8.7H91L86.3,76.2z"/>
</g>
<g>
	<path class="st0" d="M41.6,38.5c-2,0-3.7,0-5.5,0c-1,0-1.8-0.2-1.9-1.4c0-1.2,0.8-1.5,1.8-1.5c1.3,0,2.6,0,3.9,0
		c1.2,0,2.5-0.1,2.5-1.6c0-1.4-1.2-1.6-2.4-1.5c-3.8,0-7.5,0-11.3,0c-0.6,0-1.3-0.1-1.7-0.4c-0.3-0.2-0.6-1.1-0.4-1.4
		c0.4-0.5,1-1,1.6-1c2.7-0.1,5.5-0.1,8.2-0.1c2.5,0,5,0,7.5,0c1.1,0,1.8-0.4,1.8-1.5c0-1.2-0.7-1.5-1.7-1.6c-1.4,0-2.8,0-4.1,0
		c-1,0-2-0.4-1.7-1.5c0.1-0.6,1.1-1.3,1.7-1.3c2.1-0.2,4.3-0.1,6.5-0.1c1.1,0,2-0.2,2-1.5s-0.9-1.6-2.1-1.6c-3.6,0-7.3,0-10.9,0
		c-1.2,0-2.9,0.4-2.9-1.5c0-1.8,1.6-1.4,2.8-1.4c4.8,0,9.6-0.1,14.4,0c1.4,0,2.1-0.4,2.9-1.5c2.4-3.7,6.3-5.3,10.2-4.3
		c4.3,1,7.2,4.3,7.5,8.7c0.1,1.7-0.3,3.6-1,5.2c-3,6.5-6.1,12.8-9.2,19.2c-2.2,4.6-6.9,6.8-11.4,5.6c-4.7-1.3-7.4-5.3-7.1-10.5
		C41.5,39.6,41.5,39.2,41.6,38.5z M63.1,31.7c1.4-3.1,2.9-5.9,4-8.8s-0.5-6.1-3.3-7.6c-2.9-1.5-6.5-1-8.2,1.6
		c-1.8,2.7-3.1,5.8-4.7,8.9C57.9,26.5,59,27,63.1,31.7z M48,47.1c-0.2-0.7-0.3-1.1-0.4-1.5c-0.9-2.2-0.9-4.4,0.3-6.5
		c1.5-2.9,2.8-5.8,4.2-8.7c0.2-0.4,0.4-0.9,0.7-1.6c-1.7,0.2-3.2,0-4,1.6c-1.3,2.7-2.7,5.3-3.9,8.1C43.4,41.8,44.6,45.2,48,47.1z"/>
	<path class="st0" d="M29.6,23.6c0.9,0,1.8-0.2,2.7,0.1c0.6,0.2,1.1,0.9,1.6,1.3c-0.5,0.5-0.9,1.4-1.4,1.4c-1.9,0.2-3.8,0.2-5.7,0
		c-0.5,0-1.3-0.9-1.3-1.3c0.1-0.6,0.8-1.3,1.3-1.5C27.6,23.4,28.6,23.6,29.6,23.6L29.6,23.6z"/>
</g>
<g>
	<path class="st1" d="M63.1,31.7c-4-4.7-5.1-5.2-12.2-5.9c1.6-3.1,2.9-6.1,4.7-8.9c1.8-2.6,5.3-3.1,8.2-1.6c2.7,1.4,4.3,4.7,3.3,7.6
		C66,25.9,64.5,28.7,63.1,31.7z"/>
	<path class="st1" d="M48,47.1c-3.4-1.9-4.6-5.3-3.1-8.6c1.2-2.7,2.5-5.4,3.9-8.1c0.8-1.6,2.3-1.4,4-1.6c-0.3,0.7-0.4,1.1-0.7,1.6
		c-1.4,2.9-2.8,5.8-4.2,8.7c-1.1,2.2-1.2,4.3-0.3,6.5C47.7,46,47.8,46.4,48,47.1z"/>
</g>
</svg>
